<?xml version="1.0" encoding="UTF-8" standalone="no"?>
<svg
   xmlns:dc="http://purl.org/dc/elements/1.1/"
   xmlns:cc="http://creativecommons.org/ns#"
   xmlns:rdf="http://www.w3.org/1999/02/22-rdf-syntax-ns#"
   xmlns:svg="http://www.w3.org/2000/svg"
   xmlns="http://www.w3.org/2000/svg"
   xmlns:xlink="http://www.w3.org/1999/xlink"
   xmlns:sodipodi="http://sodipodi.sourceforge.net/DTD/sodipodi-0.dtd"
   xmlns:inkscape="http://www.inkscape.org/namespaces/inkscape"
   width="500.00003"
   height="499.99997"
   viewBox="0 0 132.29167 132.29166"
   version="1.1"
   id="svg1231"
   inkscape:version="1.0.1 (3bc2e813f5, 2020-09-07)"
   sodipodi:docname="weather.svg">
  <title
     id="title1098">Python Weather Icon</title>
  <defs
     id="defs1225">
    <linearGradient
       inkscape:collect="always"
       id="linearGradient1096">
      <stop
         style="stop-color:#eeeeee;stop-opacity:1"
         offset="0"
         id="stop1092" />
      <stop
         style="stop-color:#e0e0e0;stop-opacity:1"
         offset="1"
         id="stop1094" />
    </linearGradient>
    <linearGradient
       inkscape:collect="always"
       id="linearGradient1086">
      <stop
         style="stop-color:#eeeeee;stop-opacity:1"
         offset="0"
         id="stop1082" />
      <stop
         style="stop-color:#e0e0e0;stop-opacity:1"
         offset="1"
         id="stop1084" />
    </linearGradient>
    <linearGradient
       inkscape:collect="always"
       id="linearGradient2448">
      <stop
         style="stop-color:#81deea;stop-opacity:1"
         offset="0"
         id="stop2444" />
      <stop
         style="stop-color:#5667bd;stop-opacity:1"
         offset="1"
         id="stop2446" />
    </linearGradient>
    <linearGradient
       inkscape:collect="always"
       xlink:href="#linearGradient2448"
       id="linearGradient2450"
       x1="0"
       y1="-232.16667"
       x2="132.29169"
       y2="-99.875015"
       gradientUnits="userSpaceOnUse"
       gradientTransform="translate(198.4375,430.60417)" />
    <linearGradient
       inkscape:collect="always"
       xlink:href="#linearGradient4689"
       id="linearGradient1478"
       gradientUnits="userSpaceOnUse"
       gradientTransform="matrix(0.04727183,0,0,0.04772821,-98.217123,100.94002)"
       x1="26.648937"
       y1="20.603781"
       x2="135.66525"
       y2="114.39767" />
    <linearGradient
       id="linearGradient4689">
      <stop
         style="stop-color:#5a9fd4;stop-opacity:1;"
         offset="0"
         id="stop4691" />
      <stop
         style="stop-color:#306998;stop-opacity:1;"
         offset="1"
         id="stop4693" />
    </linearGradient>
    <linearGradient
       inkscape:collect="always"
       xlink:href="#linearGradient4671"
       id="linearGradient1475"
       gradientUnits="userSpaceOnUse"
       gradientTransform="matrix(0.04727183,0,0,0.04772821,-98.217123,100.94002)"
       x1="150.96111"
       y1="192.35176"
       x2="112.03144"
       y2="137.27299" />
    <linearGradient
       id="linearGradient4671">
      <stop
         style="stop-color:#ffd43b;stop-opacity:1;"
         offset="0"
         id="stop4673" />
      <stop
         style="stop-color:#ffe873;stop-opacity:1"
         offset="1"
         id="stop4675" />
    </linearGradient>
    <linearGradient
       inkscape:collect="always"
       xlink:href="#linearGradient1086"
       id="linearGradient1088"
       x1="75.697449"
       y1="31.894808"
       x2="125.46814"
       y2="52.428871"
       gradientUnits="userSpaceOnUse"
       gradientTransform="translate(198.4375,198.4375)" />
    <linearGradient
       inkscape:collect="always"
       xlink:href="#linearGradient1096"
       id="linearGradient1090"
       x1="49.029423"
       y1="69.043968"
       x2="107.48181"
       y2="101.68407"
       gradientUnits="userSpaceOnUse"
       gradientTransform="translate(198.4375,198.4375)" />
  </defs>
  <sodipodi:namedview
     id="base"
     pagecolor="#ffffff"
     bordercolor="#666666"
     borderopacity="1.0"
     inkscape:pageopacity="0.0"
     inkscape:pageshadow="2"
     inkscape:zoom="2.8284271"
     inkscape:cx="377.00347"
     inkscape:cy="96.026936"
     inkscape:document-units="px"
     inkscape:current-layer="layer4"
     showgrid="true"
     units="px"
     inkscape:window-width="1920"
     inkscape:window-height="1017"
     inkscape:window-x="-8"
     inkscape:window-y="-8"
     inkscape:window-maximized="1"
     showguides="false"
     inkscape:guide-bbox="true"
     inkscape:snap-grids="false"
     inkscape:snap-to-guides="true"
     inkscape:object-nodes="true"
     inkscape:snap-nodes="true"
     inkscape:document-rotation="0"
     inkscape:snap-smooth-nodes="true"
     inkscape:object-paths="true"
     fit-margin-top="0"
     fit-margin-left="0"
     fit-margin-right="0"
     fit-margin-bottom="0"
     inkscape:snap-page="true">
    <inkscape:grid
       type="xygrid"
       id="grid1776"
       spacingx="2.6458333"
       spacingy="2.6458333"
       originx="-396.87498"
       originy="-396.87501" />
    <sodipodi:guide
       position="-198.4375,198.4375"
       orientation="0,2000"
       id="guide954"
       inkscape:locked="false" />
    <sodipodi:guide
       position="330.72916,198.4375"
       orientation="-2000,0"
       id="guide956"
       inkscape:locked="false" />
    <sodipodi:guide
       position="330.72916,727.60416"
       orientation="0,-2000"
       id="guide958"
       inkscape:locked="false" />
    <sodipodi:guide
       position="-198.4375,727.60416"
       orientation="2000,0"
       id="guide960"
       inkscape:locked="false" />
    <sodipodi:guide
       position="66.145832,463.02083"
       orientation="1,0"
       id="guide962"
       inkscape:locked="false" />
    <sodipodi:guide
       position="66.145832,463.02083"
       orientation="0,1"
       id="guide964"
       inkscape:locked="false" />
    <sodipodi:guide
       position="13.229162,410.10417"
       orientation="1,0"
       id="guide2452"
       inkscape:locked="false" />
    <sodipodi:guide
       position="119.06249,515.93751"
       orientation="1,0"
       id="guide2454"
       inkscape:locked="false" />
    <sodipodi:guide
       position="119.06248,410.10417"
       orientation="0,1"
       id="guide2456"
       inkscape:locked="false" />
    <sodipodi:guide
       position="13.229162,515.9375"
       orientation="0,1"
       id="guide2458"
       inkscape:locked="false" />
    <sodipodi:guide
       position="171.97915,502.70834"
       orientation="1,0"
       id="guide2462"
       inkscape:locked="false" />
    <sodipodi:guide
       position="158.74999,502.70834"
       orientation="1,0"
       id="guide2464"
       inkscape:locked="false" />
    <sodipodi:guide
       position="13.229152,476.25"
       orientation="0,1"
       id="guide2495"
       inkscape:locked="false" />
    <sodipodi:guide
       position="13.229152,489.47917"
       orientation="0,1"
       id="guide2497"
       inkscape:locked="false" />
    <sodipodi:guide
       position="13.229152,502.70834"
       orientation="0,1"
       id="guide2499"
       inkscape:locked="false" />
    <sodipodi:guide
       position="52.916662,515.93751"
       orientation="1,0"
       id="guide2501"
       inkscape:locked="false" />
    <sodipodi:guide
       position="39.687492,515.93751"
       orientation="1,0"
       id="guide2503"
       inkscape:locked="false" />
    <sodipodi:guide
       position="26.458322,515.93751"
       orientation="1,0"
       id="guide2505"
       inkscape:locked="false" />
    <sodipodi:guide
       position="79.374992,410.10418"
       orientation="1,0"
       id="guide2507"
       inkscape:locked="false" />
    <sodipodi:guide
       position="92.604152,410.10418"
       orientation="1,0"
       id="guide2509"
       inkscape:locked="false" />
    <sodipodi:guide
       position="105.83332,410.10418"
       orientation="1,0"
       id="guide2511"
       inkscape:locked="false" />
    <sodipodi:guide
       position="13.229152,449.79167"
       orientation="0,1"
       id="guide2513"
       inkscape:locked="false" />
    <sodipodi:guide
       position="13.229152,436.5625"
       orientation="0,1"
       id="guide2515"
       inkscape:locked="false" />
    <sodipodi:guide
       position="13.229152,423.33334"
       orientation="0,1"
       id="guide2517"
       inkscape:locked="false" />
    <sodipodi:guide
       position="66.145832,463.02083"
       orientation="-0.70710678,0.70710678"
       id="guide2519"
       inkscape:locked="false" />
    <sodipodi:guide
       position="66.145832,463.02083"
       orientation="0.70710678,0.70710678"
       id="guide2521"
       inkscape:locked="false"
       inkscape:label=""
       inkscape:color="rgb(0,0,255)" />
    <sodipodi:guide
       position="-8.1250003e-06,529.16667"
       orientation="0,1"
       id="guide2523"
       inkscape:locked="false" />
    <sodipodi:guide
       position="132.29165,529.16668"
       orientation="1,0"
       id="guide2525"
       inkscape:locked="false" />
    <sodipodi:guide
       position="132.29165,396.875"
       orientation="0,1"
       id="guide2527"
       inkscape:locked="false" />
    <sodipodi:guide
       position="-8.1250003e-06,396.875"
       orientation="1,0"
       id="guide2529"
       inkscape:locked="false" />
  </sodipodi:namedview>
  <metadata
     id="metadata1228">
    <rdf:RDF>
      <cc:Work
         rdf:about="">
        <dc:format>image/svg+xml</dc:format>
        <dc:type
           rdf:resource="http://purl.org/dc/dcmitype/StillImage" />
        <dc:title>Python Weather Icon</dc:title>
        <dc:date>2021/01/21</dc:date>
        <dc:creator>
          <cc:Agent>
            <dc:title>hentai-chan</dc:title>
          </cc:Agent>
        </dc:creator>
        <dc:rights>
          <cc:Agent>
            <dc:title>hentai-chan</dc:title>
          </cc:Agent>
        </dc:rights>
        <cc:license
           rdf:resource="http://www.gnu.org/licenses/gpl-3.0.html" />
        <dc:source>https://github.com/hentai-chan/weather</dc:source>
      </cc:Work>
    </rdf:RDF>
  </metadata>
  <g
     inkscape:label="Layer 1"
     inkscape:groupmode="layer"
     id="layer1"
     transform="translate(-198.4375,33.72917)" />
  <g
     inkscape:groupmode="layer"
     id="layer2"
     inkscape:label="Icon"
     transform="translate(-198.4375,-198.4375)">
    <g
       inkscape:groupmode="layer"
       id="layer4"
       inkscape:label="Base"
       style="display:inline">
      <rect
         style="opacity:1;fill:url(#linearGradient2450);fill-opacity:1;fill-rule:evenodd;stroke:none;stroke-width:0.264583;stroke-miterlimit:4;stroke-dasharray:none;stroke-opacity:0.992157"
         id="rect1171"
         width="132.29167"
         height="132.29166"
         x="198.4375"
         y="198.4375"
         ry="26.45833" />
    </g>
    <g
       inkscape:groupmode="layer"
       id="layer5"
       inkscape:label="Content"
       style="display:inline">
      <path
         id="path1041"
         style="display:inline;fill:url(#linearGradient1090);fill-opacity:1;stroke-width:0.529167"
         d="m 243.78916,247.18111 a 20.978987,20.978987 0 0 0 -20.46697,16.67908 15.875,15.875 0 0 0 -13.9175,15.75356 15.875,15.875 0 0 0 15.875,15.875 15.875,15.875 0 0 0 0.031,0 15.875,15.875 0 0 0 0.0884,0 h 39.95209 25.79944 a 14.158465,14.158465 0 0 0 14.15884,-14.1583 14.158465,14.158465 0 0 0 -14.15884,-14.15831 14.158465,14.158465 0 0 0 -4.32945,0.67851 22.158842,22.158842 0 0 0 -21.46999,-16.67909 22.158842,22.158842 0 0 0 -7.54219,1.32292 20.978987,20.978987 0 0 0 -13.95315,-5.31337 20.978987,20.978987 0 0 0 -0.0667,0 z" />
      <g
         id="g1035"
         transform="matrix(3.1485763,0,0,3.1485763,505.19458,-120.78356)"
         style="display:inline">
        <path
           style="fill:url(#linearGradient1478);fill-opacity:1;stroke-width:0.264583"
           d="m -76.594187,107.52613 c -1.212758,0.006 -2.370915,0.10906 -3.389974,0.28939 -3.002019,0.53035 -3.54707,1.64044 -3.54707,3.68763 v 2.70371 h 7.094141 v 0.90123 h -7.094141 -2.66237 c -2.061755,0 -3.867086,1.23924 -4.431771,3.59668 -0.651356,2.70218 -0.680247,4.38839 0,7.2099 0.504277,2.10022 1.708559,3.59668 3.770313,3.59668 h 2.439127 v -3.24115 c 0,-2.34153 2.025953,-4.40696 4.431771,-4.40696 h 7.085873 c 1.972455,0 3.547071,-1.62406 3.54707,-3.60495 v -6.75514 c 0,-1.92256 -1.621891,-3.36677 -3.54707,-3.68763 -1.218668,-0.20287 -2.483141,-0.29503 -3.695899,-0.28939 z m -3.836458,2.17454 c 0.732776,0 1.331185,0.60818 1.331185,1.35599 -1e-6,0.74516 -0.598409,1.34772 -1.331185,1.34772 -0.735403,0 -1.331185,-0.60256 -1.331185,-1.34772 0,-0.7478 0.595782,-1.35599 1.331185,-1.35599 z"
           id="path1948" />
        <path
           style="fill:url(#linearGradient1475);fill-opacity:1;stroke-width:0.264583"
           d="m -68.466518,115.10809 v 3.1502 c 0,2.4423 -2.070601,4.49792 -4.43177,4.49792 h -7.085873 c -1.940939,0 -3.54707,1.66118 -3.54707,3.60494 v 6.75515 c 0,1.92255 1.671793,3.05337 3.54707,3.60495 2.245607,0.66029 4.399025,0.77962 7.085873,0 1.785978,-0.5171 3.547071,-1.55777 3.54707,-3.60495 v -2.70371 h -7.085872 v -0.90124 h 7.085872 3.547071 c 2.061756,0 2.83005,-1.43812 3.547068,-3.59668 0.740656,-2.22221 0.709142,-4.35922 0,-7.2099 -0.509529,-2.05249 -1.48269,-3.59668 -3.547068,-3.59668 z m -3.985286,17.10697 c 0.735404,0 1.331185,0.60257 1.331185,1.34772 -10e-7,0.74781 -0.595782,1.35599 -1.331185,1.35599 -0.732777,0 -1.331185,-0.60818 -1.331185,-1.35599 10e-7,-0.74515 0.598407,-1.34772 1.331185,-1.34772 z"
           id="path1950" />
      </g>
      <path
         id="path1058"
         style="display:inline;fill:url(#linearGradient1088);fill-opacity:1;stroke-width:0.344722"
         d="m 301.26444,219.39668 a 13.666621,13.666621 0 0 1 13.33307,10.86548 10.341663,10.341663 0 0 1 9.06646,10.26255 10.341663,10.341663 0 0 1 -10.34166,10.34166 10.341663,10.341663 0 0 1 -0.0202,0 10.341663,10.341663 0 0 1 -0.0576,0 h -26.02652 -16.80688 a 9.2234378,9.2234378 0 0 1 -9.22368,-9.22333 9.2234378,9.2234378 0 0 1 9.22368,-9.22334 9.2234378,9.2234378 0 0 1 2.82039,0.44202 14.43523,14.43523 0 0 1 13.98649,-10.86549 14.43523,14.43523 0 0 1 4.9133,0.86181 13.666621,13.666621 0 0 1 9.08969,-3.46136 13.666621,13.666621 0 0 1 0.0435,0 z" />
    </g>
  </g>
</svg>
